<svg width="16" height="16" viewBox="0 0 16 16" fill="none" xmlns="http://www.w3.org/2000/svg">
<mask id="mask0_84_2943" style="mask-type:alpha" maskUnits="userSpaceOnUse" x="0" y="0" width="16" height="16">
<rect width="16" height="16" fill="white"/>
</mask>
<g mask="url(#mask0_84_2943)">
<path fill-rule="evenodd" clip-rule="evenodd" d="M6 7.66667V9H4.66667V7.66667H6ZM6 10.3333V11.6667H4.66667V10.3333H6ZM7.33333 7.66667V9H8.66667V7.66667H7.33333ZM8.66667 10.3333V11.6667H7.33333V10.3333H8.66667ZM10 7.66667V9H11.3333V7.66667H10ZM11.3333 10.3333V11.6667H10V10.3333H11.3333ZM12.6667 14.3333H3.33333C2.598 14.3333 2 13.7353 2 13V3.66667C2 2.93133 2.598 2.33333 3.33333 2.33333H4.66667V1H6V2.33333H10V1H11.3333V2.33333H12.6667C13.402 2.33333 14 2.93133 14 3.66667V13C14 13.7353 13.402 14.3333 12.6667 14.3333ZM12.6668 5L12.6667 3.66667H3.33333V5H12.6668ZM12.6669 6.33333L12.6673 13H3.33333V6.33333H12.6669Z" fill="white"/>
</g>
</svg>
