<svg width="13" height="16" viewBox="0 0 13 16" fill="none" xmlns="http://www.w3.org/2000/svg">
<mask id="mask0_84_2973" style="mask-type:alpha" maskUnits="userSpaceOnUse" x="0" y="0" width="13" height="16">
<rect x="0.40741" width="11.8519" height="16" fill="white"/>
</mask>
<g mask="url(#mask0_84_2973)">
<path fill-rule="evenodd" clip-rule="evenodd" d="M3.86422 5.33333C3.86422 7.17133 4.97188 8.66667 6.33336 8.66667C7.69484 8.66667 8.8025 7.17133 8.8025 5.33333C8.8025 3.49533 7.69484 2 6.33336 2C4.97188 2 3.86422 3.49533 3.86422 5.33333ZM4.85188 5.33333C4.85188 4.23067 5.51657 3.33333 6.33336 3.33333C7.15015 3.33333 7.81484 4.23067 7.81484 5.33333C7.81484 6.436 7.15015 7.33333 6.33336 7.33333C5.51657 7.33333 4.85188 6.436 4.85188 5.33333ZM10.7778 14C10.7778 11.4273 9.22669 9.33333 7.32101 9.33333H5.34571C3.43953 9.33333 1.88892 11.4273 1.88892 14V14.6667H2.87657V14C2.87657 12.162 3.98422 10.6667 5.34571 10.6667H7.32101C8.6825 10.6667 9.79015 12.162 9.79015 14V14.6667H10.7778V14Z" fill="white"/>
</g>
</svg>
